<svg style="width:25px;" version="1.1" id="Layer_1" xmlns="http://www.w3.org/2000/svg" xmlns:xlink="http://www.w3.org/1999/xlink" x="0px" y="0px"
	 viewBox="-240.6 138.8 142.1 107.1" enable-background="new -240.6 138.8 142.1 107.1" xml:space="preserve">
<g>
	<path fill="#404040" d="M-121.3,188.2c0,0,0-17.3,0-33.6c0-16.3-17.8-14.6-17.8-14.6c-12.5,0-13.3,10.7-13.4,12.5
		c-9.2,3.7-8.7,11.5-8.7,11.5h24c0-7.3-5.5-10.1-7.6-11.1c1.5-4.9,4.6-4.6,4.6-4.6c0.3,0,1.3,0,4.6,0c5.7,0,6.5,6.5,6.5,6.5v33.5
		h-89.2c-3.8,0-3.7,3.7-3.7,3.7s0,0.5,0,4.3c0,3.7,4.1,4.1,4.1,4.1s0.2,1.1,0.2,14.3c0,13.2,12.2,16.5,15.8,17.6
		c0.2,4.3-3.3,4.7-3.3,4.7c-4.2-0.1-4.6,2.5-4.6,3.7c0.2,3.7,3.3,4.1,3.3,4.1h2.1c9.9,0,10.3-11.9,10.3-11.9s39.6,0,49.1,0
		c1.8,11.7,10.1,12.1,11.3,12.1c1.2,0,4.6-0.6,4.6-4.2c0-3.6-3.3-3.7-4.6-3.7c-2.3-0.3-3.3-3.5-3.5-4.9
		c16.9-4.1,16.2-17.5,16.2-17.5v-14.3c3.8,0,4.1-3.7,4.1-3.7s0-0.4,0-4.2S-121.3,188.2-121.3,188.2z M-140.3,224.7
		c-11.2,0-57.8,0-57.8,0S-210,224.8-210,213s0-12.5,0-12.5h80.6v13.3C-129.3,213.8-129.2,224.7-140.3,224.7z"/>
	<circle fill="#404040" cx="-157.8" cy="168.4" r="2.2"/>
	<circle fill="#404040" cx="-159.6" cy="176.1" r="2.6"/>
	<circle fill="#404040" cx="-161.5" cy="183.6" r="2.8"/>
	<circle fill="#404040" cx="-141.1" cy="168.4" r="2.2"/>
	<circle fill="#404040" cx="-149.4" cy="168.4" r="2.2"/>
	<circle fill="#404040" cx="-139.2" cy="176.1" r="2.6"/>
	<circle fill="#404040" cx="-149.5" cy="176.1" r="2.6"/>
	<circle fill="#404040" cx="-137.3" cy="183.6" r="2.8"/>
	<circle fill="#404040" cx="-149.2" cy="183.6" r="2.8"/>
</g>
</svg>